<svg width="168" height="243" viewBox="0 0 168 243" fill="none" xmlns="http://www.w3.org/2000/svg">
<path d="M89.9002 241.566L86.5002 239.566L83.2002 241.566C86.5 243.166 86.5002 243.166 89.9002 241.566Z" fill="#132652"/>
<path d="M92.6532 240.005C86.4837 243.566 86.4886 243.566 86.4886 236.566L63.0665 157.137C86.6999 143.132 86.6999 143.132 110 157.137L140.571 174.825C173.05 193.6 173.05 193.6 140.571 212.346L92.6532 240.005Z" fill="#132652"/>
<path d="M32.4961 12.316C-2.70083e-06 -6.43398 4.92856e-06 -6.43398 4.92856e-06 31.066L4.92856e-06 186.566C4.92856e-06 193.566 4.92856e-06 193.566 6.06161 197.066L80.5 240.047C82.0098 240.919 83.1456 241.575 84 241.962C84.4651 242.177 84.6902 242.286 85 242.406C85.6478 242.665 86.0065 242.764 86.5981 242.766L86.6563 62.316C86.6563 43.566 86.6563 43.566 70.4082 34.191L32.4961 12.316Z" fill="#23396B"/>
</svg>
